# xmcd
#
# Track frame offsets:
#	150
#	12637
#	24846
#	35257
#	45338
#	58319
#	70681
#	82333
#	93218
#	104983
#
# Disc length: 1566 seconds
#
# Revision: 0
# Processed by: cddbd v1.5.2PL0 Copyright (c) Steve Scherf et al.
# Submitted via: audiograbber 1.83.01
#
DISCID=81061c0a
DTITLE=Dolly Parton - The Bargain Store
DYEAR=1975
DGENRE=Country
TTITLE0=The Bargain Store
TTITLE1=Kentucky Gambler
TTITLE2=When I'm Gone
TTITLE3=The Only Hand You'll Need To Hold
TTITLE4=On My Mind Again
TTITLE5=I Want To Be What You Need
TTITLE6=Love To Remember
TTITLE7=You'll Always Be Special To Me
TTITLE8=He Would Know
TTITLE9=I'll Never Forget
EXTD=
EXTT0=
EXTT1=
EXTT2=
EXTT3=
EXTT4=
EXTT5=
EXTT6=
EXTT7=
EXTT8=
EXTT9=
PLAYORDER=
